<svg width="787" height="277" viewBox="0 0 787 277" fill="none" xmlns="http://www.w3.org/2000/svg">
<g clip-path="url(#clip0_198_28)">
<path d="M786.5 10.4846V273.152H732.822V10.4846H786.5Z" fill="white"/>
<path d="M354.57 277C335.314 277 318.661 272.768 304.612 264.303C290.645 255.752 279.86 243.867 272.257 228.648C264.653 213.342 260.852 195.6 260.852 175.421C260.852 155.072 264.653 137.287 272.257 122.067C279.86 106.762 290.645 94.8769 304.612 86.412C318.661 77.8616 335.314 73.5864 354.57 73.5864C373.826 73.5864 390.438 77.8616 404.405 86.412C418.454 94.8769 429.28 106.762 436.884 122.067C444.487 137.287 448.289 155.072 448.289 175.421C448.289 195.6 444.487 213.342 436.884 228.648C429.28 243.867 418.454 255.752 404.405 264.303C390.438 272.768 373.826 277 354.57 277ZM354.818 234.676C363.579 234.676 370.892 232.111 376.76 226.98C382.628 221.765 387.05 214.668 390.025 205.69C393.083 196.712 394.612 186.494 394.612 175.037C394.612 163.579 393.083 153.361 390.025 144.384C387.05 135.406 382.628 128.309 376.76 123.093C370.892 117.877 363.579 115.27 354.818 115.27C345.975 115.27 338.537 117.877 332.504 123.093C326.554 128.309 322.05 135.406 318.992 144.384C316.017 153.361 314.529 163.579 314.529 175.037C314.529 186.494 316.017 196.712 318.992 205.69C322.05 214.668 326.554 221.765 332.504 226.98C338.537 232.111 345.975 234.676 354.818 234.676Z" fill="white"/>
<path d="M172.309 95.3899C170.574 89.1481 168.136 83.6331 164.995 78.8449C161.855 73.9712 158.011 69.867 153.466 66.5324C149.003 63.1122 143.879 60.5043 138.094 58.7088C132.392 56.9132 126.07 56.0154 119.128 56.0154C106.152 56.0154 94.7475 59.35 84.9129 66.0193C75.1609 72.6886 67.5575 82.3933 62.103 95.1334C56.6484 107.788 53.9213 123.264 53.9213 141.562C53.9213 159.86 56.6073 175.421 61.9792 188.247C67.3511 201.073 74.9542 210.863 84.7888 217.618C94.6235 224.287 106.235 227.622 119.623 227.622C131.772 227.622 142.144 225.398 150.739 220.952C159.416 216.421 166.028 210.05 170.573 201.842C175.202 193.634 177.516 183.929 177.516 172.728L188.425 174.395H122.97V132.584H229.21V165.674C229.21 188.76 224.499 208.597 215.077 225.185C205.656 241.687 192.681 254.427 176.152 263.405C159.623 272.297 140.698 276.743 119.375 276.743C95.5739 276.743 74.665 271.314 56.6485 260.455C38.6321 249.51 24.5826 233.992 14.5 213.898C4.50003 193.719 -0.5 169.778 -0.5 142.075C-0.5 120.785 2.47525 101.803 8.42563 85.1294C14.4587 68.3707 22.8884 54.1771 33.7147 42.5486C44.5411 30.92 57.1444 22.0704 71.5244 15.9996C85.9045 9.92884 101.483 6.89346 118.26 6.89346C132.64 6.89346 146.028 9.07381 158.425 13.4345C170.821 17.7097 181.813 23.7805 191.4 31.6468C201.069 39.5132 208.962 48.8758 215.077 59.7348C221.193 70.5083 225.119 82.3933 226.854 95.3899H172.309Z" fill="white"/>
<path d="M578.74 0L446.737 272.844H504.651L578.74 114.168L652.146 272.844H710.389L578.74 0Z" fill="white"/>
</g>
<defs>
<clipPath id="clip0_198_28">
<rect width="787" height="277" fill="white"/>
</clipPath>
</defs>
</svg>
