<svg width="17" height="17" viewBox="0 0 17 17" fill="none" xmlns="http://www.w3.org/2000/svg">
  <path d="M5.03612 6.30304L4.56364 5.93322H4.56364L5.03612 6.30304ZM4.16473 7.57235L4.72061 7.79816L4.16473 7.57235ZM4.29558 9.72744L3.7711 10.0189L4.29558 9.72744ZM9.8931 11.16L10.2629 11.6325V11.6325L9.8931 11.16ZM8.62379 12.0314L8.39798 11.4755L8.62379 12.0314ZM6.4687 11.9006L6.17729 12.425L6.4687 11.9006ZM10.813 10.44L10.4432 9.96748L10.813 10.44ZM13.663 7.84955L13.1881 7.4829L13.663 7.84955ZM15.5706 2.63577L14.9724 2.5903L15.5706 2.63577ZM15.0935 5.17582L15.6621 5.36746L15.0935 5.17582ZM5.75617 5.38309L6.22865 5.75291H6.22865L5.75617 5.38309ZM8.34659 2.53314L8.71324 3.00808L8.34659 2.53314ZM13.5604 0.625495L13.5149 0.0272209L13.5604 0.625495ZM11.0203 1.10263L11.212 1.6712L11.0203 1.10263ZM12.9745 12.2804H12.3745V12.2805L12.9745 12.2804ZM12.7845 12.9664L13.299 13.2751L13.299 13.2751L12.7845 12.9664ZM11.8775 14.478L11.363 14.1693L11.8775 14.478ZM10.6931 14.3976L11.2446 14.1613L10.6931 14.3976ZM11.4199 15.0711L11.6377 15.6302H11.6377L11.4199 15.0711ZM11.0663 15.0471L10.775 15.5717L11.0663 15.0471ZM3.91569 3.22167L3.91569 3.82167H3.91569V3.22167ZM3.22969 3.41168L2.921 2.89718L2.921 2.89719L3.22969 3.41168ZM1.71813 4.31862L1.40943 3.80412L1.71813 4.31862ZM1.79851 5.50305L2.03487 4.95156L1.79851 5.50305ZM1.125 4.77621L0.565925 4.55841L0.565924 4.55841L1.125 4.77621ZM1.14899 5.12979L0.624476 5.42113H0.624476L1.14899 5.12979ZM3.38141 13.6633C3.61571 13.4289 3.61569 13.049 3.38136 12.8147C3.14703 12.5804 2.76713 12.5805 2.53283 12.8148L2.95712 13.239L3.38141 13.6633ZM0.175952 15.1719C-0.0583485 15.4063 -0.0583253 15.7862 0.176004 16.0205C0.410332 16.2548 0.790231 16.2548 1.02453 16.0204L0.600242 15.5962L0.175952 15.1719ZM5.14915 15.431C5.38347 15.1967 5.38347 14.8168 5.14915 14.5825C4.91484 14.3482 4.53494 14.3482 4.30062 14.5825L4.72489 15.0068L5.14915 15.431ZM3.71137 15.1718C3.47705 15.4061 3.47705 15.786 3.71137 16.0203C3.94568 16.2546 4.32558 16.2546 4.5599 16.0203L4.13563 15.596L3.71137 15.1718ZM1.61362 11.8955C1.84793 11.6612 1.84793 11.2813 1.61362 11.047C1.3793 10.8127 0.999404 10.8127 0.765089 11.047L1.18935 11.4713L1.61362 11.8955ZM0.175834 11.6362C-0.058481 11.8706 -0.058481 12.2505 0.175833 12.4848C0.410148 12.7191 0.790047 12.7191 1.02436 12.4848L0.600098 12.0605L0.175834 11.6362ZM7.56374 3.22167L7.98816 3.64578L7.56374 3.22167ZM4.69346 6.74373L5.16999 7.10831L4.69346 6.74373ZM10.813 10.44L10.4432 9.96748L9.52328 10.6875L9.8931 11.16L10.2629 11.6325L11.1829 10.9124L10.813 10.44ZM5.03612 6.30304L5.5086 6.67285L6.22865 5.75291L5.75617 5.38309L5.28369 5.01328L4.56364 5.93322L5.03612 6.30304ZM13.5604 0.625495L13.6058 1.22377C14.0046 1.19346 14.3402 1.19172 14.5925 1.22099C14.8774 1.25404 14.9318 1.31345 14.9072 1.28891L15.3315 0.864649L15.7558 0.440385C15.4742 0.158863 15.0591 0.0670757 14.7308 0.028982C14.3698 -0.0128911 13.9484 -0.0057264 13.5149 0.0272209L13.5604 0.625495ZM15.3315 0.864649L14.9072 1.28891C14.8827 1.26437 14.9421 1.31874 14.9752 1.60364C15.0044 1.85596 15.0027 2.19157 14.9724 2.5903L15.5706 2.63577L16.1689 2.68124C16.2019 2.24775 16.209 1.82629 16.1672 1.46535C16.1291 1.13699 16.0373 0.721907 15.7558 0.440385L15.3315 0.864649ZM5.31414 10.882L5.73841 10.4577C5.14473 9.86406 4.93916 9.65039 4.82006 9.43603L4.29558 9.72744L3.7711 10.0189C3.99205 10.4165 4.35217 10.7685 4.88988 11.3063L5.31414 10.882ZM4.16473 7.57235L3.60884 7.34653C3.25566 8.21595 3.31533 9.19855 3.7711 10.0189L4.29558 9.72744L4.82006 9.43603C4.54071 8.93327 4.50415 8.33103 4.72061 7.79816L4.16473 7.57235ZM5.31414 10.882L4.88988 11.3063C5.42759 11.844 5.77961 12.2041 6.17729 12.425L6.4687 11.9006L6.76011 11.3761C6.54575 11.257 6.33208 11.0514 5.73841 10.4577L5.31414 10.882ZM8.62379 12.0314L8.39798 11.4755C7.86511 11.692 7.26287 11.6554 6.76011 11.3761L6.4687 11.9006L6.17729 12.425C6.99759 12.8808 7.98019 12.9405 8.8496 12.5873L8.62379 12.0314ZM15.5706 2.63577L14.9724 2.5903C14.9004 3.53759 14.8686 3.96469 14.5249 4.98417L15.0935 5.17582L15.6621 5.36746C16.052 4.21058 16.0938 3.66977 16.1689 2.68124L15.5706 2.63577ZM13.663 7.84955L14.1379 8.2162C14.6595 7.54062 15.3895 6.17623 15.6621 5.36746L15.0935 5.17582L14.5249 4.98417C14.2949 5.66668 13.6282 6.91278 13.1881 7.4829L13.663 7.84955ZM13.5604 0.625495L13.5149 0.0272209C12.5264 0.102354 11.9856 0.144117 10.8287 0.534064L11.0203 1.10263L11.212 1.6712C12.2314 1.32757 12.6585 1.29577 13.6058 1.22377L13.5604 0.625495ZM8.34659 2.53314L8.71324 3.00808C9.28335 2.56795 10.5295 1.90126 11.212 1.6712L11.0203 1.10263L10.8287 0.534064C10.0199 0.806674 8.65551 1.53665 7.97993 2.05821L8.34659 2.53314ZM12.7845 12.9664L12.27 12.6577L11.363 14.1693L11.8775 14.478L12.392 14.7867L13.299 13.2751L12.7845 12.9664ZM11.8775 14.478L11.363 14.1693C11.2486 14.36 11.1837 14.467 11.133 14.5363C11.1099 14.5679 11.1027 14.5733 11.1092 14.5672C11.1179 14.5592 11.1488 14.5328 11.2021 14.5121L11.4199 15.0711L11.6377 15.6302C11.8706 15.5395 12.0155 15.3624 12.1016 15.2448C12.1923 15.1207 12.2899 14.9569 12.392 14.7867L11.8775 14.478ZM10.6931 14.3976L10.1416 14.634C10.2198 14.8164 10.2943 14.9918 10.3675 15.1271C10.4368 15.2552 10.5565 15.4503 10.775 15.5717L11.0663 15.0471L11.3577 14.5226C11.4077 14.5504 11.4348 14.5807 11.4423 14.5899C11.4479 14.5967 11.4415 14.5904 11.4229 14.556C11.382 14.4805 11.3322 14.3657 11.2446 14.1613L10.6931 14.3976ZM11.4199 15.0711L11.2021 14.5121C11.253 14.4923 11.31 14.4961 11.3577 14.5226L11.0663 15.0471L10.775 15.5717C11.0395 15.7186 11.3558 15.7401 11.6377 15.6302L11.4199 15.0711ZM3.22969 3.41168L2.921 2.89719L1.40943 3.80412L1.71813 4.31862L2.02683 4.83312L3.53839 3.92618L3.22969 3.41168ZM1.71813 4.31862L1.40943 3.80412C1.23921 3.90626 1.07548 4.00379 0.951366 4.09458C0.833783 4.18059 0.656652 4.32553 0.565925 4.55841L1.125 4.77621L1.68407 4.99402C1.66331 5.0473 1.63692 5.07826 1.62889 5.08692C1.62283 5.09346 1.62824 5.08623 1.65983 5.06312C1.72912 5.01244 1.83611 4.94755 2.02683 4.83312L1.71813 4.31862ZM1.79851 5.50305L2.03487 4.95156C1.83043 4.86394 1.71566 4.8141 1.64016 4.77325C1.60573 4.75462 1.5994 4.74819 1.60629 4.75385C1.61541 4.76135 1.64574 4.78846 1.67351 4.83844L1.14899 5.12979L0.624476 5.42113C0.745836 5.63962 0.940926 5.7593 1.06905 5.82863C1.2043 5.90182 1.3797 5.97633 1.56216 6.05453L1.79851 5.50305ZM1.125 4.77621L0.565924 4.55841C0.456079 4.84037 0.477541 5.1566 0.624476 5.42113L1.14899 5.12979L1.67351 4.83844C1.70001 4.88615 1.70388 4.94317 1.68407 4.99402L1.125 4.77621ZM2.95712 13.239L2.53283 12.8148L0.175952 15.1719L0.600242 15.5962L1.02453 16.0204L3.38141 13.6633L2.95712 13.239ZM4.72489 15.0068L4.30062 14.5825L3.71137 15.1718L4.13563 15.596L4.5599 16.0203L5.14915 15.431L4.72489 15.0068ZM1.18935 11.4713L0.765089 11.047L0.175834 11.6362L0.600098 12.0605L1.02436 12.4848L1.61362 11.8955L1.18935 11.4713ZM3.91569 3.22167L3.91569 2.62167C3.53446 2.62167 3.2479 2.70105 2.921 2.89718L3.22969 3.41168L3.53839 3.92618C3.67879 3.84194 3.75196 3.82167 3.91569 3.82167L3.91569 3.22167ZM7.56374 3.22167V2.62167L3.91569 2.62167V3.22167V3.82167L7.56374 3.82167V3.22167ZM5.75617 5.38309L6.22865 5.75291C7.00457 4.76159 7.48511 4.14921 7.98816 3.64578L7.56374 3.22167L7.13932 2.79756C6.5737 3.3636 6.04427 4.04156 5.28369 5.01328L5.75617 5.38309ZM7.56374 3.22167L7.98816 3.64578C8.21553 3.41825 8.44777 3.21303 8.71324 3.00808L8.34659 2.53314L7.97993 2.05821C7.67338 2.29486 7.4026 2.53409 7.13932 2.79756L7.56374 3.22167ZM1.79851 5.50305L1.56216 6.05453L4.4571 7.29522L4.69346 6.74373L4.92981 6.19225L2.03487 4.95156L1.79851 5.50305ZM5.03612 6.30304L4.56364 5.93322C4.43351 6.09948 4.31788 6.2472 4.21692 6.37916L4.69346 6.74373L5.16999 7.10831C5.26609 6.9827 5.37726 6.84065 5.5086 6.67285L5.03612 6.30304ZM4.69346 6.74373L4.21692 6.37916C3.94387 6.73606 3.73911 7.02585 3.60884 7.34653L4.16473 7.57235L4.72061 7.79816C4.78399 7.64215 4.89685 7.46534 5.16999 7.10831L4.69346 6.74373ZM10.6931 14.3976L11.2446 14.1613L10.0039 11.2663L9.4524 11.5027L8.90092 11.739L10.1416 14.634L10.6931 14.3976ZM9.8931 11.16L9.52328 10.6875C9.35549 10.8189 9.21344 10.93 9.08783 11.0261L9.4524 11.5027L9.81698 11.9792C9.94894 11.8783 10.0967 11.7626 10.2629 11.6325L9.8931 11.16ZM9.4524 11.5027L9.08783 11.0261C8.7308 11.2993 8.55399 11.4122 8.39798 11.4755L8.62379 12.0314L8.8496 12.5873C9.17029 12.457 9.46007 12.2523 9.81698 11.9792L9.4524 11.5027ZM12.9745 8.63239H12.3745L12.3745 12.2804H12.9745H13.5745L13.5745 8.63239H12.9745ZM10.813 10.44L11.1829 10.9124C12.1546 10.1519 12.8325 9.62243 13.3986 9.05681L12.9745 8.63239L12.5504 8.20797C12.0469 8.71103 11.4345 9.19157 10.4432 9.96748L10.813 10.44ZM12.9745 8.63239L13.3986 9.05681C13.662 8.79353 13.9013 8.52275 14.1379 8.2162L13.663 7.84955L13.1881 7.4829C12.9831 7.74837 12.7779 7.98061 12.5504 8.20797L12.9745 8.63239ZM12.9745 12.2804L12.3745 12.2805C12.3745 12.4442 12.3542 12.5173 12.27 12.6577L12.7845 12.9664L13.299 13.2751C13.4951 12.9482 13.5745 12.6617 13.5745 12.2804L12.9745 12.2804ZM11.7885 6.47012L11.3642 6.04586C11.029 6.38106 10.4855 6.38106 10.1503 6.04586L9.72608 6.47012L9.30182 6.89438C10.1056 7.69821 11.4089 7.69821 12.2127 6.89438L11.7885 6.47012ZM9.72608 6.47012L10.1503 6.04586C9.81514 5.71066 9.81514 5.16719 10.1503 4.83199L9.72608 4.40773L9.30182 3.98346C8.49799 4.78729 8.49799 6.09056 9.30182 6.89438L9.72608 6.47012ZM9.72608 4.40773L10.1503 4.83199C10.4855 4.49679 11.029 4.49679 11.3642 4.83199L11.7885 4.40773L12.2127 3.98346C11.4089 3.17963 10.1056 3.17963 9.30182 3.98346L9.72608 4.40773ZM11.7885 4.40773L11.3642 4.83199C11.6994 5.16719 11.6994 5.71066 11.3642 6.04586L11.7885 6.47012L12.2127 6.89438C13.0166 6.09056 13.0166 4.78729 12.2127 3.98346L11.7885 4.40773Z" fill="#21232E"/>
</svg>

