<svg width="15" height="15" viewBox="0 0 15 15" fill="none" xmlns="http://www.w3.org/2000/svg">
  <path d="M13.9334 5.04446L13.9334 0.600013M13.9334 0.600013H9.48897M13.9334 0.600013L7.26676 7.26667M5.78528 0.600006H4.15565C2.91109 0.600006 2.28881 0.600006 1.81345 0.842214C1.39531 1.05527 1.05536 1.39522 0.842305 1.81336C0.600098 2.28872 0.600098 2.911 0.600098 4.15556V10.3778C0.600098 11.6223 0.600098 12.2446 0.842305 12.72C1.05536 13.1381 1.39531 13.4781 1.81345 13.6911C2.28881 13.9333 2.91109 13.9333 4.15565 13.9333H10.3779C11.6224 13.9333 12.2447 13.9333 12.7201 13.6911C13.1382 13.4781 13.4782 13.1381 13.6912 12.72C13.9334 12.2446 13.9334 11.6223 13.9334 10.3778V8.74815" stroke="#868FA0" stroke-width="1.2" stroke-linecap="round" stroke-linejoin="round"/>
</svg>

